<?xml version="1.0" encoding="UTF-8" standalone="no"?>
<!DOCTYPE svg PUBLIC "-//W3C//DTD SVG 1.1//EN" "http://www.w3.org/Graphics/SVG/1.1/DTD/svg11.dtd">
<svg width="100%" height="100%" viewBox="0 0 332 175" version="1.1" xmlns="http://www.w3.org/2000/svg" xmlns:xlink="http://www.w3.org/1999/xlink" xml:space="preserve" xmlns:serif="http://www.serif.com/" style="fill-rule:evenodd;clip-rule:evenodd;stroke-linejoin:round;stroke-miterlimit:2;">
    <g transform="matrix(1,0,0,1,-1804.14,-552.687)">
        <g transform="matrix(1.31668,0,0,1.31668,-173.685,-409.091)">
            <circle cx="1568.45" cy="796.769" r="66.313" style="fill:white;"/>
        </g>
        <g transform="matrix(1,0,0,1,17.0697,77.8699)">
            <path d="M1787.08,562.106L1787.08,562.156L1787.07,562.13L1787.08,562.106Z" style="fill:none;"/>
        </g>
        <g transform="matrix(1,0,0,1,17.0697,77.8699)">
            <path d="M1865.18,475.305L1865.18,489.484C1822.43,483.215 1792.88,519.245 1787.85,550.687C1793.05,510.886 1825.1,479.494 1865.18,475.305Z" style="fill:rgb(0,31,41);"/>
        </g>
        <g transform="matrix(0.948273,0,0,0.977201,464.348,-174.038)">
            <g transform="matrix(54.5104,0,0,54.5104,1621.89,872.223)">
                <path d="M0.377,0.019C0.28,0.019 0.2,-0.003 0.138,-0.046C0.076,-0.089 0.039,-0.149 0.027,-0.225L0.249,-0.225C0.27,-0.177 0.31,-0.153 0.368,-0.153C0.392,-0.153 0.411,-0.157 0.426,-0.164C0.44,-0.171 0.447,-0.181 0.447,-0.194C0.447,-0.211 0.437,-0.224 0.418,-0.234C0.399,-0.245 0.375,-0.252 0.346,-0.257C0.317,-0.261 0.286,-0.268 0.253,-0.277C0.219,-0.286 0.188,-0.298 0.159,-0.312C0.13,-0.325 0.106,-0.347 0.087,-0.378C0.068,-0.409 0.058,-0.446 0.058,-0.491C0.058,-0.56 0.086,-0.615 0.141,-0.657C0.196,-0.698 0.269,-0.719 0.36,-0.719C0.447,-0.719 0.521,-0.698 0.581,-0.657C0.641,-0.615 0.675,-0.559 0.683,-0.488L0.458,-0.488C0.445,-0.529 0.416,-0.55 0.37,-0.55C0.351,-0.55 0.335,-0.546 0.323,-0.538C0.31,-0.53 0.304,-0.519 0.304,-0.505C0.304,-0.488 0.314,-0.474 0.333,-0.464C0.352,-0.453 0.376,-0.446 0.405,-0.441C0.434,-0.436 0.465,-0.429 0.498,-0.42C0.531,-0.411 0.562,-0.399 0.591,-0.386C0.62,-0.373 0.644,-0.351 0.663,-0.321C0.682,-0.291 0.692,-0.254 0.692,-0.21C0.692,-0.141 0.663,-0.086 0.606,-0.044C0.548,-0.002 0.472,0.019 0.377,0.019Z" style="fill:rgb(0,31,41);fill-rule:nonzero;"/>
            </g>
            <g transform="matrix(54.5104,0,0,54.5104,1661.13,872.223)">
                <path d="M0.611,-0.528L0.268,-0.528L0.268,-0.433L0.553,-0.433L0.553,-0.265L0.268,-0.265L0.268,-0.172L0.611,-0.172L0.611,-0L0.048,-0L0.048,-0.7L0.611,-0.7L0.611,-0.528Z" style="fill:rgb(0,31,41);fill-rule:nonzero;"/>
            </g>
            <g transform="matrix(54.5104,0,0,54.5104,1695.8,872.223)">
                <path d="M0.268,-0.179L0.607,-0.179L0.607,-0L0.048,-0L0.048,-0.7L0.268,-0.7L0.268,-0.179Z" style="fill:rgb(0,31,41);fill-rule:nonzero;"/>
            </g>
            <g transform="matrix(54.5104,0,0,52.8967,1729.6,871.093)">
                <path d="M0.268,-0.179L0.607,-0.179L0.607,-0L0.048,-0L0.048,-0.7L0.268,-0.7L0.268,-0.179Z" style="fill:rgb(0,31,41);fill-rule:nonzero;"/>
            </g>
        </g>
        <g transform="matrix(0.497922,0,0,0.497922,1196.95,199.531)">
            <text x="1621.89px" y="872.223px" style="font-family:'SonnyGothic-Black', 'Sonny Gothic';font-weight:800;font-size:54.51px;fill:rgb(0,31,41);">L<tspan x="1655.14px 1689.26px 1725.51px 1746.5px " y="872.223px 872.223px 872.223px 872.223px ">ET´S</tspan></text>
        </g>
        <g transform="matrix(1,0,0,1,17.0697,77.8699)">
            <path d="M1894.67,647.071C1888.16,648.622 1881.37,649.443 1874.39,649.443C1826.23,649.443 1787.12,610.366 1787.08,562.156L1787.08,562.106C1787.08,558.222 1787.34,554.397 1787.85,550.687C1792.88,519.245 1822.43,483.215 1865.18,489.484L1865.18,475.305C1868.19,474.981 1871.27,474.817 1874.39,474.817C1909.3,474.817 1939.46,495.358 1953.4,524.979L1933.24,547.521L1858.66,548.705C1835.94,548.705 1817.51,567.145 1817.51,589.858C1817.51,608.389 1829.78,624.076 1846.64,629.224C1851.57,630.286 1863.95,631.633 1874.39,623.52C1880.91,618.449 1884.13,610.014 1884,603.439C1883.83,594.667 1879.93,587.75 1872.31,587.47C1868.19,587.318 1865.71,589.573 1864.51,592.51C1865.92,590.133 1868.17,588.596 1870.7,588.596C1874.99,588.596 1878.47,593.019 1878.47,598.466C1878.47,603.537 1875.67,607.051 1871.58,608.274L1871.6,608.336C1871.6,608.336 1862.58,611.162 1855.71,604.772C1848.46,598.036 1847.74,574.386 1872.73,574.4C1892.51,574.411 1897.37,589.677 1898.55,599.995C1898.57,599.904 1898.6,599.812 1898.62,599.721C1899.04,599.511 1899.47,599.301 1899.9,599.09L1894.67,647.071Z" style="fill:rgb(113,235,0);"/>
        </g>
        <g transform="matrix(1.31379,0,0,1.31379,-581.398,-89.0264)">
            <circle cx="1915.96" cy="512.577" r="4.927" style="fill:rgb(0,31,41);"/>
        </g>
        <g transform="matrix(1,0,0,1,17.0697,77.8699)">
            <path d="M1899.9,599.09C1899.47,599.301 1899.04,599.511 1898.62,599.721C1898.6,599.812 1898.57,599.904 1898.55,599.995C1897.37,589.677 1892.51,574.411 1872.73,574.4C1847.74,574.386 1848.46,598.036 1855.71,604.772C1862.58,611.162 1871.6,608.336 1871.6,608.336L1871.58,608.274C1875.67,607.051 1878.47,603.537 1878.47,598.466C1878.47,593.019 1874.99,588.596 1870.7,588.596C1868.17,588.596 1865.92,590.133 1864.51,592.51C1865.71,589.573 1868.19,587.318 1872.31,587.47C1879.93,587.75 1883.83,594.667 1884,603.439C1884.13,610.014 1880.91,618.449 1874.39,623.52C1863.95,631.633 1851.57,630.286 1846.64,629.224C1829.78,624.076 1817.51,608.389 1817.51,589.858C1817.51,567.145 1835.94,548.705 1858.66,548.705L1933.24,547.521L1953.4,524.979C1958.73,536.274 1961.7,548.858 1961.7,562.13C1961.7,563.418 1961.67,564.7 1961.62,565.974L1953.26,565.974C1953.22,561.307 1952.9,556.652 1950.32,552.959C1947.71,549.222 1943.17,547.27 1938.6,547.22C1938.56,547.22 1938.51,547.22 1938.47,547.221C1938.42,547.219 1938.4,547.22 1938.31,547.22C1929.83,547.313 1923.73,554.407 1923.65,562.123L1923.65,565.974L1907.2,565.974C1905.1,565.975 1903.35,567.55 1903.12,569.63L1899.9,599.09ZM1950.25,565.974C1950.15,560.019 1949.47,554.217 1944.3,551.514C1942.52,550.581 1940.48,550.226 1938.45,550.22C1938.45,550.22 1938.43,550.205 1938.38,550.177C1938.22,550.206 1938.04,550.224 1937.84,550.231C1931.87,550.469 1926.82,555.642 1926.65,562.021C1926.64,563.351 1926.74,564.74 1926.78,565.974L1950.25,565.974Z" style="fill:rgb(0,31,41);"/>
        </g>
    </g>
</svg>
